<?xml version="1.0" standalone="no"?>
<!DOCTYPE svg PUBLIC "-//W3C//DTD SVG 20010904//EN"
 "http://www.w3.org/TR/2001/REC-SVG-20010904/DTD/svg10.dtd">
<svg version="1.0" xmlns="http://www.w3.org/2000/svg"
 width="206.000000pt" height="206.000000pt" viewBox="0 0 206.000000 206.000000"
 preserveAspectRatio="xMidYMid meet">
<metadata>
Created by potrace 1.10, written by Peter Selinger 2001-2011
</metadata>
<g transform="translate(0.000000,206.000000) scale(0.100000,-0.100000)"
fill="#000000" stroke="none">
<path d="M837 2034 c-104 -19 -238 -70 -339 -130 -113 -67 -275 -229 -342
-342 -198 -333 -195 -744 6 -1072 69 -113 224 -267 336 -334 328 -195 736
-195 1064 0 112 67 267 221 336 334 201 328 204 739 6 1072 -67 113 -229 275
-342 342 -214 127 -479 175 -725 130z m-182 -493 c75 -34 123 -117 110 -189
-22 -125 -162 -191 -270 -127 -128 75 -117 254 20 316 51 23 89 23 140 0z
m453 -2 c29 -15 54 -37 74 -68 26 -40 29 -53 26 -103 -7 -100 -79 -168 -178
-168 -99 0 -171 68 -178 168 -3 50 0 63 26 103 33 52 97 89 151 89 19 0 55
-10 79 -21z m437 2 c137 -62 148 -241 20 -316 -108 -64 -248 2 -270 127 -13
72 35 155 110 189 51 23 89 23 140 0z m-437 -445 c98 -51 131 -166 73 -258
-32 -51 -96 -88 -151 -88 -89 0 -180 89 -180 176 0 73 30 125 95 165 36 23
124 25 163 5z m-11 -441 c48 -20 71 -41 95 -89 58 -114 -31 -256 -162 -256
-93 0 -170 70 -178 163 -11 137 120 234 245 182z"/>
</g>
</svg>
