<?xml version="1.0" standalone="no"?>
<!DOCTYPE svg PUBLIC "-//W3C//DTD SVG 20010904//EN"
 "http://www.w3.org/TR/2001/REC-SVG-20010904/DTD/svg10.dtd">
<svg version="1.0" xmlns="http://www.w3.org/2000/svg"
 width="221.000000pt" height="217.000000pt" viewBox="0 0 221.000000 217.000000"
 preserveAspectRatio="xMidYMid meet">
<metadata>
Created by potrace 1.10, written by Peter Selinger 2001-2011
</metadata>
<g transform="translate(0.000000,217.000000) scale(0.100000,-0.100000)"
fill="#000000" stroke="none">
<path d="M955 2154 c-11 -2 -45 -9 -75 -15 -327 -63 -619 -292 -770 -603 -207
-426 -116 -937 226 -1271 153 -149 415 -285 474 -246 12 8 15 34 15 123 l0
113 -110 1 c-99 0 -115 3 -161 26 -61 32 -65 37 -110 129 -26 53 -53 90 -96
131 -42 38 -59 61 -55 72 9 23 62 20 113 -5 40 -19 61 -40 139 -135 47 -58 80
-74 156 -74 93 0 125 13 133 55 4 18 18 49 31 69 14 20 25 39 25 41 0 3 -12 5
-28 5 -41 0 -167 37 -224 66 -145 74 -229 221 -244 432 -9 119 24 237 89 316
22 28 23 31 10 80 -23 83 0 226 39 247 27 14 114 -13 216 -67 l83 -43 72 15
c94 21 308 21 403 0 l70 -15 106 53 c109 55 169 72 198 56 36 -19 59 -167 37
-246 -13 -49 -12 -52 10 -80 65 -79 98 -197 89 -316 -15 -211 -99 -358 -244
-432 -57 -29 -183 -66 -224 -66 -28 0 -37 -13 -17 -26 6 -3 21 -27 32 -53 19
-41 21 -70 25 -251 3 -128 8 -210 15 -219 17 -20 74 -8 170 37 556 261 794
928 527 1478 -108 224 -280 398 -500 509 -163 82 -263 106 -465 110 -88 2
-169 2 -180 -1z"/>
</g>
</svg>
