<?xml version="1.0" standalone="no"?>
<!DOCTYPE svg PUBLIC "-//W3C//DTD SVG 20010904//EN"
 "http://www.w3.org/TR/2001/REC-SVG-20010904/DTD/svg10.dtd">
<svg version="1.0" xmlns="http://www.w3.org/2000/svg"
 width="178.000000pt" height="178.000000pt" viewBox="0 0 178.000000 178.000000"
 preserveAspectRatio="xMidYMid meet">
<metadata>
Created by potrace 1.10, written by Peter Selinger 2001-2011
</metadata>
<g transform="translate(0.000000,178.000000) scale(0.100000,-0.100000)"
fill="#000000" stroke="none">
<path d="M630 1771 c-288 -8 -306 -11 -401 -72 -59 -37 -141 -123 -167 -175
-56 -110 -57 -122 -57 -629 0 -428 2 -475 18 -530 55 -177 164 -287 342 -342
55 -16 102 -18 525 -18 423 0 470 2 525 18 182 56 306 184 347 359 10 38 13
179 13 513 0 418 -2 465 -18 520 -55 175 -164 286 -337 340 -65 21 -361 26
-790 16z m785 -175 c71 -28 156 -115 186 -191 23 -59 24 -68 27 -450 4 -425
-3 -515 -44 -604 -43 -95 -108 -148 -219 -177 -65 -18 -856 -20 -937 -3 -114
25 -187 81 -235 184 l-28 60 0 475 0 475 26 55 c47 101 123 164 226 189 21 5
243 9 493 7 419 -1 459 -3 505 -20z"/>
<path d="M1299 1431 c-31 -32 -38 -71 -18 -114 33 -73 156 -62 182 17 32 97
-90 170 -164 97z"/>
<path d="M801 1339 c-121 -24 -252 -120 -309 -227 -41 -77 -54 -130 -53 -221
0 -255 196 -450 452 -451 175 0 330 99 408 260 35 73 36 77 36 195 0 114 -2
123 -32 188 -89 188 -300 296 -502 256z m217 -179 c112 -56 167 -145 167 -270
0 -62 -5 -84 -27 -126 -95 -181 -328 -224 -471 -86 -64 61 -91 124 -91 212 -1
124 54 213 166 270 86 42 170 42 256 0z"/>
</g>
</svg>
