<?xml version="1.0" standalone="no"?>
<!DOCTYPE svg PUBLIC "-//W3C//DTD SVG 20010904//EN"
 "http://www.w3.org/TR/2001/REC-SVG-20010904/DTD/svg10.dtd">
<svg version="1.0" xmlns="http://www.w3.org/2000/svg"
 width="213.000000pt" height="213.000000pt" viewBox="0 0 213.000000 213.000000"
 preserveAspectRatio="xMidYMid meet">
<metadata>
Created by potrace 1.10, written by Peter Selinger 2001-2011
</metadata>
<g transform="translate(0.000000,213.000000) scale(0.100000,-0.100000)"
fill="#000000" stroke="none">
<path d="M892 2106 c-117 -23 -211 -55 -313 -107 -364 -187 -587 -576 -566
-988 14 -261 111 -491 286 -675 321 -336 808 -427 1226 -227 533 255 753 894
490 1426 -134 270 -389 476 -684 552 -121 31 -328 40 -439 19z m358 -171 c356
-71 641 -372 701 -740 16 -99 6 -268 -21 -363 -86 -306 -312 -536 -617 -629
-78 -23 -106 -26 -238 -27 -179 -1 -241 12 -392 85 -224 107 -384 289 -462
524 -69 210 -57 444 34 642 178 386 579 591 995 508z"/>
<path d="M735 1503 l-310 -208 -3 -232 -2 -233 316 -211 c223 -149 323 -210
338 -207 22 5 626 403 638 422 4 6 8 111 8 233 l0 223 -315 210 c-179 120
-325 210 -338 210 -13 0 -155 -89 -332 -207z m285 -77 l0 -133 -124 -83 c-69
-45 -129 -80 -134 -79 -25 10 -191 125 -189 131 2 9 428 296 440 297 4 1 7
-59 7 -133z m330 -13 c121 -80 220 -149 219 -152 0 -7 -193 -131 -203 -131 -3
0 -60 36 -126 80 l-120 80 0 135 c0 74 2 135 5 135 3 0 104 -66 225 -147z
m-180 -280 c55 -36 100 -69 100 -72 -1 -8 -188 -131 -200 -131 -15 0 -200 124
-197 132 2 6 185 135 195 137 1 1 47 -29 102 -66z m-568 -23 c37 -25 67 -47
67 -50 0 -6 -134 -90 -143 -90 -3 0 -6 43 -6 96 0 53 3 94 8 92 4 -1 37 -23
74 -48z m1018 -45 c0 -57 -4 -95 -10 -95 -15 0 -140 84 -137 92 2 9 128 97
140 97 4 1 7 -42 7 -94z m-717 -157 l117 -78 0 -136 0 -136 -29 19 c-168 107
-420 280 -418 285 4 15 192 135 202 130 6 -3 63 -41 128 -84z m571 22 c52 -36
96 -67 96 -70 0 -3 -12 -12 -28 -21 -15 -9 -116 -75 -224 -147 l-198 -131 0
137 1 137 122 82 c67 45 125 81 128 80 4 -1 50 -31 103 -67z"/>
</g>
</svg>
